{
    "asset" : {
        "generator" : "Khronos glTF Blender I/O v1.7.33",
        "version" : "2.0"
    },
    "scene" : 0,
    "scenes" : [
        {
            "name" : "Scene",
            "nodes" : [
                1
            ]
        }
    ],
    "nodes" : [
        {
            "mesh" : 0,
            "name" : "Plane",
            "scale" : [
                5.401391983032227,
                5.401391983032227,
                5.401391983032227
            ],
            "translation" : [
                -0.0065235854126513,
                -2.1464571952819824,
                -0.629496157169342
            ]
        },
        {
            "children" : [
                0
            ],
            "mesh" : 1,
            "name" : "Cube",
            "scale" : [
                0.18513743579387665,
                0.18513743579387665,
                0.18513743579387665
            ],
            "translation" : [
                0.0012077600695192814,
                0.39738959074020386,
                0.11654330790042877
            ]
        }
    ],
    "animations" : [
        {
            "channels" : [
                {
                    "sampler" : 0,
                    "target" : {
                        "node" : 0,
                        "path" : "weights"
                    }
                }
            ],
            "name" : "Key.001Action",
            "samplers" : [
                {
                    "input" : 12,
                    "interpolation" : "STEP",
                    "output" : 13
                }
            ]
        },
        {
            "channels" : [
                {
                    "sampler" : 0,
                    "target" : {
                        "node" : 1,
                        "path" : "weights"
                    }
                }
            ],
            "name" : "KeyAction",
            "samplers" : [
                {
                    "input" : 14,
                    "interpolation" : "STEP",
                    "output" : 15
                }
            ]
        }
    ],
    "materials" : [
        {
            "doubleSided" : true,
            "name" : "MateriaMO",
            "pbrMetallicRoughness" : {
                "baseColorTexture" : {
                    "index" : 0
                },
                "metallicFactor" : 0,
                "roughnessFactor" : 0.5
            }
        }
    ],
    "meshes" : [
        {
            "extras" : {
                "targetNames" : [
                    "Key 1"
                ]
            },
            "name" : "Plane",
            "primitives" : [
                {
                    "attributes" : {
                        "POSITION" : 0,
                        "NORMAL" : 1,
                        "TEXCOORD_0" : 2
                    },
                    "indices" : 3,
                    "material" : 0,
                    "targets" : [
                        {
                            "POSITION" : 4,
                            "NORMAL" : 5
                        }
                    ]
                }
            ],
            "weights" : [
                0.8294438123703003
            ]
        },
        {
            "extras" : {
                "targetNames" : [
                    "Key 1"
                ]
            },
            "name" : "Cube.001",
            "primitives" : [
                {
                    "attributes" : {
                        "POSITION" : 6,
                        "NORMAL" : 7,
                        "TEXCOORD_0" : 8
                    },
                    "indices" : 9,
                    "material" : 0,
                    "targets" : [
                        {
                            "POSITION" : 10,
                            "NORMAL" : 11
                        }
                    ]
                }
            ],
            "weights" : [
                1
            ]
        }
    ],
    "textures" : [
        {
            "sampler" : 0,
            "source" : 0
        }
    ],
    "images" : [
        {
            "bufferView" : 4,
            "mimeType" : "image/jpeg",
            "name" : "pexels-alen-kuzmanovic-1848761-3433842.jpg",
            "uri" : "pexels-alen-kuzmanovic-1848761-3433842.jpg"
        }
    ],
    "accessors" : [
        {
            "bufferView" : 0,
            "componentType" : 5126,
            "count" : 272,
            "max" : [
                -0.07077488303184509,
                0.8213397264480591,
                1.6216315031051636
            ],
            "min" : [
                -1.0961978435516357,
                -0.6366578340530396,
                0.26903194189071655
            ],
            "type" : "VEC3"
        },
        {
            "bufferView" : 1,
            "componentType" : 5126,
            "count" : 272,
            "type" : "VEC3"
        },
        {
            "bufferView" : 2,
            "componentType" : 5126,
            "count" : 272,
            "type" : "VEC2"
        },
        {
            "bufferView" : 3,
            "componentType" : 5123,
            "count" : 408,
            "type" : "SCALAR"
        },
        {
            "bufferView" : 5,
            "componentType" : 5126,
            "count" : 272,
            "max" : [
                0.2064104974269867,
                0.36760765314102173,
                0.11503630876541138
            ],
            "min" : [
                -0.27408283948898315,
                -0.1266552209854126,
                -2.2909061908721924
            ],
            "type" : "VEC3"
        },
        {
            "bufferView" : 6,
            "componentType" : 5126,
            "count" : 272,
            "type" : "VEC3"
        },
        {
            "bufferView" : 7,
            "componentType" : 5126,
            "count" : 52,
            "max" : [
                1.3411487340927124,
                4.239571571350098,
                1.3411487340927124
            ],
            "min" : [
                -1.3411486148834229,
                -5.263477802276611,
                -1.3411487340927124
            ],
            "type" : "VEC3"
        },
        {
            "bufferView" : 8,
            "componentType" : 5126,
            "count" : 52,
            "type" : "VEC3"
        },
        {
            "bufferView" : 9,
            "componentType" : 5126,
            "count" : 52,
            "type" : "VEC2"
        },
        {
            "bufferView" : 10,
            "componentType" : 5123,
            "count" : 300,
            "type" : "SCALAR"
        },
        {
            "bufferView" : 11,
            "componentType" : 5126,
            "count" : 52,
            "max" : [
                -0.03241807222366333,
                -0.039574384689331055,
                1.3975372314453125
            ],
            "min" : [
                -0.03241819143295288,
                -0.03957486152648926,
                1.3975368738174438
            ],
            "type" : "VEC3"
        },
        {
            "bufferView" : 12,
            "componentType" : 5126,
            "count" : 52,
            "type" : "VEC3"
        },
        {
            "bufferView" : 13,
            "componentType" : 5126,
            "count" : 1,
            "max" : [
                1.0833333333333333
            ],
            "min" : [
                1.0833333333333333
            ],
            "type" : "SCALAR"
        },
        {
            "bufferView" : 14,
            "componentType" : 5126,
            "count" : 1,
            "type" : "SCALAR"
        },
        {
            "bufferView" : 15,
            "componentType" : 5126,
            "count" : 1,
            "max" : [
                5.958333333333333
            ],
            "min" : [
                5.958333333333333
            ],
            "type" : "SCALAR"
        },
        {
            "bufferView" : 16,
            "componentType" : 5126,
            "count" : 1,
            "type" : "SCALAR"
        }
    ],
    "bufferViews" : [
        {
            "buffer" : 0,
            "byteLength" : 3264,
            "byteOffset" : 0
        },
        {
            "buffer" : 0,
            "byteLength" : 3264,
            "byteOffset" : 3264
        },
        {
            "buffer" : 0,
            "byteLength" : 2176,
            "byteOffset" : 6528
        },
        {
            "buffer" : 0,
            "byteLength" : 816,
            "byteOffset" : 8704
        },
        {
            "buffer" : 0,
            "byteLength" : 645,
            "byteOffset" : 9520
        },
        {
            "buffer" : 0,
            "byteLength" : 3264,
            "byteOffset" : 10168
        },
        {
            "buffer" : 0,
            "byteLength" : 3264,
            "byteOffset" : 13432
        },
        {
            "buffer" : 0,
            "byteLength" : 624,
            "byteOffset" : 16696
        },
        {
            "buffer" : 0,
            "byteLength" : 624,
            "byteOffset" : 17320
        },
        {
            "buffer" : 0,
            "byteLength" : 416,
            "byteOffset" : 17944
        },
        {
            "buffer" : 0,
            "byteLength" : 600,
            "byteOffset" : 18360
        },
        {
            "buffer" : 0,
            "byteLength" : 624,
            "byteOffset" : 18960
        },
        {
            "buffer" : 0,
            "byteLength" : 624,
            "byteOffset" : 19584
        },
        {
            "buffer" : 0,
            "byteLength" : 4,
            "byteOffset" : 20208
        },
        {
            "buffer" : 0,
            "byteLength" : 4,
            "byteOffset" : 20212
        },
        {
            "buffer" : 0,
            "byteLength" : 4,
            "byteOffset" : 20216
        },
        {
            "buffer" : 0,
            "byteLength" : 4,
            "byteOffset" : 20220
        }
    ],
    "samplers" : [
        {
            "magFilter" : 9729,
            "minFilter" : 9987
        }
    ],
    "buffers" : [
        {
            "byteLength" : 20224,
            "uri" : "data:application/octet-stream;base64,"
        }
    ]
}
